<mxfile host="app.diagrams.net" modified="2023-06-12T17:27:14.026Z" agent="Mozilla/5.0 (Macintosh; Intel Mac OS X 10_15_7) AppleWebKit/537.36 (KHTML, like Gecko) Chrome/114.0.0.0 Safari/537.36" etag="Uqv57yoWBJeWmFT3TosI" version="21.3.7" type="device">
  <diagram name="Page-1" id="rbiUo5bFybXOO1fcTCTT">
    <mxGraphModel dx="1242" dy="795" grid="1" gridSize="10" guides="1" tooltips="1" connect="1" arrows="1" fold="1" page="1" pageScale="1" pageWidth="850" pageHeight="1100" math="0" shadow="0">
      <root>
        <mxCell id="0" />
        <mxCell id="1" parent="0" />
        <mxCell id="9J3SF0-3zK-d3_jPCRng-8" value="" style="rounded=0;whiteSpace=wrap;html=1;fillColor=#CCFF99;" parent="1" vertex="1">
          <mxGeometry x="40" y="520" width="760" height="310" as="geometry" />
        </mxCell>
        <mxCell id="9J3SF0-3zK-d3_jPCRng-102" value="&lt;font color=&quot;#ffffff&quot;&gt;Event Stream&lt;/font&gt;" style="rounded=0;whiteSpace=wrap;html=1;fillColor=#006600;" parent="1" vertex="1">
          <mxGeometry x="75" y="690" width="700" height="60" as="geometry" />
        </mxCell>
        <mxCell id="9J3SF0-3zK-d3_jPCRng-108" value="" style="group" parent="1" vertex="1" connectable="0">
          <mxGeometry x="460" y="580" width="330" height="95" as="geometry" />
        </mxCell>
        <mxCell id="9J3SF0-3zK-d3_jPCRng-104" value="" style="rounded=0;whiteSpace=wrap;html=1;fillColor=#97D077;" parent="9J3SF0-3zK-d3_jPCRng-108" vertex="1">
          <mxGeometry width="330" height="90" as="geometry" />
        </mxCell>
        <mxCell id="9J3SF0-3zK-d3_jPCRng-103" value="&lt;font color=&quot;#ffffff&quot;&gt;Raw Topic&lt;/font&gt;" style="rounded=0;whiteSpace=wrap;html=1;fillColor=#006600;" parent="9J3SF0-3zK-d3_jPCRng-108" vertex="1">
          <mxGeometry x="39.99883720930232" y="20" width="53.72093023255814" height="35" as="geometry" />
        </mxCell>
        <mxCell id="9J3SF0-3zK-d3_jPCRng-106" value="&lt;font color=&quot;#ffffff&quot;&gt;Transformed Topic&lt;/font&gt;" style="rounded=0;whiteSpace=wrap;html=1;fillColor=#006600;" parent="9J3SF0-3zK-d3_jPCRng-108" vertex="1">
          <mxGeometry x="118.95348837209302" y="20" width="88.25581395348837" height="35" as="geometry" />
        </mxCell>
        <mxCell id="9J3SF0-3zK-d3_jPCRng-107" value="&lt;font color=&quot;#ffffff&quot;&gt;Validated Topic&lt;/font&gt;" style="rounded=0;whiteSpace=wrap;html=1;fillColor=#006600;" parent="9J3SF0-3zK-d3_jPCRng-108" vertex="1">
          <mxGeometry x="234.06976744186045" y="20" width="88.25581395348837" height="35" as="geometry" />
        </mxCell>
        <mxCell id="9J3SF0-3zK-d3_jPCRng-128" style="edgeStyle=orthogonalEdgeStyle;rounded=0;orthogonalLoop=1;jettySize=auto;html=1;startArrow=classic;startFill=1;" parent="1" target="9J3SF0-3zK-d3_jPCRng-102" edge="1">
          <mxGeometry relative="1" as="geometry">
            <Array as="points">
              <mxPoint x="120" y="690" />
              <mxPoint x="120" y="690" />
            </Array>
            <mxPoint x="140" y="610" as="sourcePoint" />
          </mxGeometry>
        </mxCell>
        <mxCell id="ZxNKODZLQWNlTjTZxuV1-7" value="Data Extract End" style="rounded=0;whiteSpace=wrap;html=1;fontSize=29;" parent="1" vertex="1">
          <mxGeometry x="195" y="40" width="440" height="80" as="geometry" />
        </mxCell>
        <mxCell id="RGziFcFXrHToBncZ5XYz-13" style="edgeStyle=orthogonalEdgeStyle;rounded=0;orthogonalLoop=1;jettySize=auto;html=1;" parent="1" source="wtkJlvtXBfEeCUlwDUSq-8" target="9J3SF0-3zK-d3_jPCRng-43" edge="1">
          <mxGeometry relative="1" as="geometry">
            <Array as="points">
              <mxPoint x="160" y="390" />
              <mxPoint x="180" y="390" />
            </Array>
          </mxGeometry>
        </mxCell>
        <mxCell id="P834e1Idd1s5zUDwPIiD-6" style="edgeStyle=orthogonalEdgeStyle;rounded=0;orthogonalLoop=1;jettySize=auto;html=1;entryX=0.25;entryY=1;entryDx=0;entryDy=0;" edge="1" parent="1" source="wtkJlvtXBfEeCUlwDUSq-8" target="RGziFcFXrHToBncZ5XYz-7">
          <mxGeometry relative="1" as="geometry">
            <Array as="points">
              <mxPoint x="170" y="400" />
              <mxPoint x="270" y="400" />
            </Array>
          </mxGeometry>
        </mxCell>
        <mxCell id="wtkJlvtXBfEeCUlwDUSq-8" value="Data_Extract_End" style="rounded=0;whiteSpace=wrap;html=1;fillColor=#FF9999;" parent="1" vertex="1">
          <mxGeometry x="80" y="570" width="120" height="40" as="geometry" />
        </mxCell>
        <mxCell id="RGziFcFXrHToBncZ5XYz-5" style="edgeStyle=orthogonalEdgeStyle;rounded=0;orthogonalLoop=1;jettySize=auto;html=1;" parent="1" source="9J3SF0-3zK-d3_jPCRng-43" edge="1">
          <mxGeometry relative="1" as="geometry">
            <mxPoint x="120" y="570" as="targetPoint" />
            <Array as="points">
              <mxPoint x="120" y="570" />
            </Array>
          </mxGeometry>
        </mxCell>
        <mxCell id="P834e1Idd1s5zUDwPIiD-2" style="edgeStyle=orthogonalEdgeStyle;rounded=0;orthogonalLoop=1;jettySize=auto;html=1;entryX=0.5;entryY=1;entryDx=0;entryDy=0;" edge="1" parent="1" source="9J3SF0-3zK-d3_jPCRng-43" target="P834e1Idd1s5zUDwPIiD-1">
          <mxGeometry relative="1" as="geometry">
            <Array as="points">
              <mxPoint x="155" y="220" />
              <mxPoint x="155" y="220" />
            </Array>
          </mxGeometry>
        </mxCell>
        <mxCell id="9J3SF0-3zK-d3_jPCRng-43" value="Reaper" style="rounded=0;whiteSpace=wrap;html=1;fillColor=#66B2FF;movable=1;resizable=1;rotatable=1;deletable=1;editable=1;locked=0;connectable=1;" parent="1" vertex="1">
          <mxGeometry x="80" y="240" width="120" height="40" as="geometry" />
        </mxCell>
        <mxCell id="RGziFcFXrHToBncZ5XYz-6" value="Send" style="rounded=0;whiteSpace=wrap;html=1;" parent="1" vertex="1">
          <mxGeometry x="80" y="340" width="80" height="20" as="geometry" />
        </mxCell>
        <mxCell id="P834e1Idd1s5zUDwPIiD-17" style="edgeStyle=orthogonalEdgeStyle;rounded=0;orthogonalLoop=1;jettySize=auto;html=1;entryX=1;entryY=0.5;entryDx=0;entryDy=0;" edge="1" parent="1" source="RGziFcFXrHToBncZ5XYz-7" target="P834e1Idd1s5zUDwPIiD-1">
          <mxGeometry relative="1" as="geometry">
            <Array as="points">
              <mxPoint x="310" y="145" />
            </Array>
          </mxGeometry>
        </mxCell>
        <mxCell id="P834e1Idd1s5zUDwPIiD-22" style="edgeStyle=orthogonalEdgeStyle;rounded=0;orthogonalLoop=1;jettySize=auto;html=1;entryX=0.5;entryY=1;entryDx=0;entryDy=0;" edge="1" parent="1" source="RGziFcFXrHToBncZ5XYz-7" target="P834e1Idd1s5zUDwPIiD-8">
          <mxGeometry relative="1" as="geometry">
            <mxPoint x="586.25" y="270" as="targetPoint" />
          </mxGeometry>
        </mxCell>
        <mxCell id="RGziFcFXrHToBncZ5XYz-7" value="Forklift" style="rounded=0;whiteSpace=wrap;html=1;fillColor=#66B2FF;movable=1;resizable=1;rotatable=1;deletable=1;editable=1;locked=0;connectable=1;" parent="1" vertex="1">
          <mxGeometry x="240" y="240" width="120" height="40" as="geometry" />
        </mxCell>
        <mxCell id="RGziFcFXrHToBncZ5XYz-11" value="Receive" style="rounded=0;whiteSpace=wrap;html=1;" parent="1" vertex="1">
          <mxGeometry x="130" y="420" width="80" height="20" as="geometry" />
        </mxCell>
        <mxCell id="P834e1Idd1s5zUDwPIiD-1" value="Redis" style="rounded=0;whiteSpace=wrap;html=1;fillColor=#CCFF99;" vertex="1" parent="1">
          <mxGeometry x="120" y="130" width="70" height="30" as="geometry" />
        </mxCell>
        <mxCell id="P834e1Idd1s5zUDwPIiD-3" value="Update Last Fetched Time" style="rounded=0;whiteSpace=wrap;html=1;" vertex="1" parent="1">
          <mxGeometry x="120" y="190" width="85" height="30" as="geometry" />
        </mxCell>
        <mxCell id="P834e1Idd1s5zUDwPIiD-7" style="edgeStyle=orthogonalEdgeStyle;rounded=0;orthogonalLoop=1;jettySize=auto;html=1;" edge="1" parent="1" source="P834e1Idd1s5zUDwPIiD-8" target="P834e1Idd1s5zUDwPIiD-14">
          <mxGeometry relative="1" as="geometry" />
        </mxCell>
        <mxCell id="P834e1Idd1s5zUDwPIiD-8" value="Trino" style="rounded=0;whiteSpace=wrap;html=1;fillColor=#CCFF99;" vertex="1" parent="1">
          <mxGeometry x="718.75" y="200" width="80" height="20" as="geometry" />
        </mxCell>
        <mxCell id="P834e1Idd1s5zUDwPIiD-9" style="edgeStyle=orthogonalEdgeStyle;rounded=0;orthogonalLoop=1;jettySize=auto;html=1;entryX=0.5;entryY=1;entryDx=0;entryDy=0;" edge="1" parent="1" source="P834e1Idd1s5zUDwPIiD-10" target="P834e1Idd1s5zUDwPIiD-16">
          <mxGeometry relative="1" as="geometry" />
        </mxCell>
        <mxCell id="P834e1Idd1s5zUDwPIiD-10" value="Hive" style="rounded=0;whiteSpace=wrap;html=1;fillColor=#CCFF99;" vertex="1" parent="1">
          <mxGeometry x="718.75" y="120" width="80" height="20" as="geometry" />
        </mxCell>
        <mxCell id="P834e1Idd1s5zUDwPIiD-11" value="S3" style="rounded=0;whiteSpace=wrap;html=1;fillColor=#CCFF99;" vertex="1" parent="1">
          <mxGeometry x="718.75" y="40" width="80" height="20" as="geometry" />
        </mxCell>
        <mxCell id="P834e1Idd1s5zUDwPIiD-13" style="edgeStyle=orthogonalEdgeStyle;rounded=0;orthogonalLoop=1;jettySize=auto;html=1;entryX=0.5;entryY=1;entryDx=0;entryDy=0;" edge="1" parent="1" source="P834e1Idd1s5zUDwPIiD-14" target="P834e1Idd1s5zUDwPIiD-10">
          <mxGeometry relative="1" as="geometry" />
        </mxCell>
        <mxCell id="P834e1Idd1s5zUDwPIiD-14" value="Distribute Queries" style="rounded=0;whiteSpace=wrap;html=1;fontSize=10;" vertex="1" parent="1">
          <mxGeometry x="710" y="160" width="97.5" height="20" as="geometry" />
        </mxCell>
        <mxCell id="P834e1Idd1s5zUDwPIiD-15" style="edgeStyle=orthogonalEdgeStyle;rounded=0;orthogonalLoop=1;jettySize=auto;html=1;entryX=0.5;entryY=1;entryDx=0;entryDy=0;" edge="1" parent="1" source="P834e1Idd1s5zUDwPIiD-16" target="P834e1Idd1s5zUDwPIiD-11">
          <mxGeometry relative="1" as="geometry" />
        </mxCell>
        <mxCell id="P834e1Idd1s5zUDwPIiD-16" value="Update Files" style="rounded=0;whiteSpace=wrap;html=1;fontSize=10;" vertex="1" parent="1">
          <mxGeometry x="710" y="80" width="97.5" height="20" as="geometry" />
        </mxCell>
        <mxCell id="P834e1Idd1s5zUDwPIiD-18" value="Cache Expected Message Amount" style="rounded=0;whiteSpace=wrap;html=1;" vertex="1" parent="1">
          <mxGeometry x="250" y="190" width="115" height="30" as="geometry" />
        </mxCell>
        <mxCell id="P834e1Idd1s5zUDwPIiD-23" value="Compact Temp Data into Permanent Storage" style="rounded=0;whiteSpace=wrap;html=1;fontSize=10;" vertex="1" parent="1">
          <mxGeometry x="650" y="240" width="97.5" height="40" as="geometry" />
        </mxCell>
        <mxCell id="P834e1Idd1s5zUDwPIiD-24" value="If all data messages have already been received upon receiving event&lt;br&gt;- OR -&lt;br&gt;If timeout has been reached" style="rounded=0;whiteSpace=wrap;html=1;" vertex="1" parent="1">
          <mxGeometry x="380" y="220" width="245" height="70" as="geometry" />
        </mxCell>
      </root>
    </mxGraphModel>
  </diagram>
</mxfile>
